# xmcd
# 
# Track frame offsets:
#	150
#	20132
#	36660
#	62512
#	65810
#	109620
#	129162
#	151000
#	170855
#	209907
#	242500
#
# Disc length: 3466 seconds
#
# Revision: 1
# Processed by: cddbd v1.5.1PL0 Copyright (c) Steve Scherf et al.
# Submitted via: Audio-CD-Archiv 3.00.487
#
DISCID=a00d880b
DTITLE=Walter Trout Band - Life In The Jungle
DYEAR=1900
DGENRE=blues
TTITLE0=Good Enough To Eat
TTITLE1=The Mountain Song
TTITLE2=Life In The Jungle
TTITLE3=Spacefish
TTITLE4=Red House
TTITLE5=She's Out There Somewhere
TTITLE6=Frederica (I Don't Need You)
TTITLE7=In My Mind
TTITLE8=Cold Gold Feeling
TTITLE9=Serve Me Right To Suffer
TTITLE10=Proposal (On The Run)
EXTD=
EXTT0=
EXTT1=
EXTT2=
EXTT3=
EXTT4=
EXTT5=
EXTT6=
EXTT7=
EXTT8=
EXTT9=
EXTT10=
PLAYORDER=
